<svg xmlns="http://www.w3.org/2000/svg" viewBox="0 0 100 100" fill-rule="evenodd"><g class="t-group-origins"><path d="M49.244 67.609c-2.654 1.638-6.518.779-8.107-1.797l-11.49-18.621a5.583 5.583 0 0 1 1.815-7.675l-.788-1.276.788 1.276 10.05-6.205-8.849-14.337-10.044 6.2c-9.853 6.081-9.532 22.005.782 38.723 4.72 7.651 10.663 13.736 16.732 17.135 3.574 2.001 7.096 3.006 10.377 3.005 2.755 0 5.34-.708 7.644-2.13l9.667-5.963-8.849-14.341-9.728 6.006zm7.335 11.745c-5.228 3.227-11.032 1.271-14.979-.94-5.632-3.153-11.188-8.868-15.645-16.092-9.386-15.216-10.109-29.442-1.759-34.596l-.788-1.276.788 1.276 7.49-4.624 5.698 9.232-7.498 4.629c-4.024 2.483-5.276 7.778-2.792 11.803l11.489 18.62c2.456 3.983 8.174 5.278 12.235 2.775l7.177-4.43 5.698 9.233-7.114 4.39zm3.008-38.761a13.253 13.253 0 0 1 1.467 11.483l2.847.948c1.583-4.754.927-9.882-1.799-14.067-2.809-4.326-7.57-7.09-12.736-7.396l-.177 2.995c4.281.253 8.071 2.453 10.398 6.037z" stroke-width="0" stroke="#ffffff" fill="#ffffff" stroke-width-old="0"></path><path d="m51.396 21.636-.343 2.98a23.37 23.37 0 0 1 16.973 10.489 23.382 23.382 0 0 1 2.873 19.208l2.884.827a26.382 26.382 0 0 0-3.242-21.671 26.358 26.358 0 0 0-19.145-11.833z" stroke-width="0" stroke="#ffffff" fill="#ffffff" stroke-width-old="0"></path><path d="M78.017 28.604A35.268 35.268 0 0 0 53.295 12.89l-.413 2.972a32.27 32.27 0 0 1 22.62 14.378c5 7.681 6.5 17.167 4.116 26.028l2.897.779a35.363 35.363 0 0 0-4.498-28.443z" stroke-width="0" stroke="#ffffff" fill="#ffffff" stroke-width-old="0"></path></g></svg>
